<svg clip-rule="evenodd" fill-rule="evenodd" stroke-linejoin="round" stroke-miterlimit="2" viewBox="0 0 600 68" xmlns="http://www.w3.org/2000/svg">
<style>
#pico path {
  fill: black;
}
@media (prefers-color-scheme: dark) {
  #pico path {
    fill: white;
  }
}
#ide path {
  fill: #8b1821;
}
@media (prefers-color-scheme: dark) {
  #ide path {
    fill: #dc2626;
  }
}
</style>
<g id="ide"><path d="m490.151 1.674.921-.058 2.383-.073 10.989-.009 44.907.009-2.514 8.516-37.496.016-9.155.032-5.272 19.307 5.058-.002 1.39.031 15.282.003-2.514 8.516-7.281.003v.013l-.985-.012-13.186.005-5.218 19.293 1.365-.001 44.908.008-2.514 8.516-37.497.016-8.562-.034-.015.055-.033-.008-.532-.024-.68-.017-.901-.008h-24.468l.008-.033 2.195-8.729 5.224-18.506.151-.553-6.147-.002 2.514-8.516 5.954-.002 7.56-27.752z" transform="translate(1.08012)"/><path d="m414.01 1.757 13.658-.067 2.735-.008 2.874.033 2.972.106 3.014.213 3.005.352 1.482.238 1.458.278 1.425.328 1.392.376 1.351.434 1.294.492 1.245.556 1.179.623 1.105.688 1.032.769.95.844.86.917.761 1.007.655 1.097.549 1.188.434 1.277.303 1.384.18 1.482.041 1.589-.106 1.695-.254 1.81-.41 1.932-6.002 22.904-.671 2.301-.811 2.17-.942 2.048-1.081 1.916-1.228 1.777-1.392 1.637-.762.77-.794.729-.844.696-.892.655-.934.614-.974.582-1.024.54-1.072.5-1.122.458-1.179.41-1.221.376-1.277.336-2.702.541-2.932.36-3.153.188h-55.953l.037-.131h-.194l.009-.033 2.194-8.729 5.225-18.506 4.834-17.747 5.156-19.07h.039l.002-.008h26.499zm-15.051 55.674 6.385-23.608h-.09l.038-.139h.069l6.551-23.183 11.031.008.655.041.778.107.876.188.942.27.974.361.999.45.491.27.484.287.475.327.458.344.442.385.426.41.401.442.369.467.336.507.311.541.262.581.229.606.18.655.131.68.082.729.025.761-.033.803-.098.851-.164.885-.229.933-4.799 17.451-.999 3.185-1.007 2.76-1.048 2.374-1.147 2.015-.622.876-.655.802-.705.713-.753.647-.802.581-.868.508-.934.442-.999.385-1.081.328-1.163.27-2.587.401-2.981.221-3.407.082z"/><path d="m62.309 29.117.268-1.066.638-2.26 1.225-4.497h3.236l-1.072 3.926h.011l-1.057 3.908-.004-.001-.014-.001-.051-.002-.083-.002-.11-.001h-2.988z" transform="matrix(8.18877 0 0 8.18877 -182.195 -172.698)"/></g><g id="pico"><path d="m252.153 49.096-.08-.725-.025-.764.033-.804.096-.846.161-.888.23-.931 1.459-5.414.616-2.25.594-1.969.61-1.708.324-.762.342-.703.367-.647.396-.593.429-.541.469-.491.512-.445.56-.4.614-.357.673-.317.737-.279.804-.243.878-.21.957-.179 1.04-.15 1.128-.124 2.54-.176 2.952-.099 3.404-.038h1.003l2.039-8.671-2.039 8.671-.004.017 1.073-.007 11.037.004.655.042.777.11.873.186.94.268.98.358.993.456.493.266.485.293.475.321.461.35.444.379.423.41.398.441.371.474.339.506.305.541.267.576.225.612.181.648.132.686.08.725.025.764-.033.805-.096.845-.161.888-.23.931-1.461 5.422-.618 2.261-.596 1.983-.612 1.723-.326.77-.344.712-.368.656-.398.602-.431.551-.47.501-.513.455-.562.409-.616.366-.675.327-.738.287-.806.252-.879.218-.958.187-1.041.157-1.129.13-2.542.187-2.953.105-3.405.04h-.675l-1.362-.009-.01.009h-.792l-10.234-.22-.655-.042-.778-.11-.872-.186-.94-.268-.981-.358-.992-.455-.493-.267-.486-.293-.475-.321-.461-.35-.443-.379-.423-.41-.398-.441-.371-.474-.339-.506-.305-.541-.267-.576-.225-.612-.181-.648zm-26.441-3.03.411-1.928 1.877-7.169.677-2.294.806-2.171.94-2.046 1.083-1.916 1.234-1.78 1.391-1.641.757-.766.8-.731.843-.693.887-.655.932-.617.978-.578 1.026-.539 1.073-.499 1.123-.459 1.172-.417 1.223-.376 1.275-.334 2.709-.539 2.927-.363 3.154-.183h23.005v-.003l7.6-.035 4.985-.038 1.618-.025.588-.029 2.729-.014 2.878.033 2.973.11 3.015.216 3.004.35 1.48.234 1.458.279 1.427.327 1.392.379 1.348.434 1.298.493 1.241.555 1.179.622 1.108.691 1.032.765.948.842.859.923.761 1.006.658 1.095.548 1.186.431 1.282.307 1.38.177 1.482.04 1.589-.103 1.698-.254 1.811-.412 1.928-1.876 7.169-.678 2.293-.805 2.172-.94 2.046-1.083 1.916-1.234 1.78-1.391 1.641-.758.766-.799.731-.843.693-.887.655-.933.617-.978.578-1.026.539-1.073.499-1.122.459-1.173.417-1.223.376-1.275.334-2.708.539-2.928.363-3.153.184-3.387-.001-18.692.001v.001l-7.972.027-5.361.044-2.385.057-2.728.014-2.878-.033-2.971-.11-3.018-.216-3.003-.35-1.481-.234-1.457-.279-1.428-.327-1.391-.379-1.348-.434-1.298-.493-1.242-.555-1.178-.622-1.109-.691-1.031-.765-.949-.842-.858-.923-.761-1.006-.658-1.095-.548-1.186-.431-1.282-.308-1.38-.177-1.482-.04-1.589.104-1.698.038-.27z" transform="translate(-1)"/><path d="m25.221 23.211h6.833l-.297 1.033h-4.094l-.416.005-.36.013-.311.023-.138.016-.127.019-.117.023-.107.026-.099.031-.09.035-.082.04-.075.045-.069.05-.063.055-.057.062-.053.067-.048.073-.045.081-.042.086-.04.095-.075.21-.073.242-.075.276-.178.662-.028.114-.02.108-.012.104-.004.098.003.093.01.089.016.084.022.079.028.074.032.071.038.066.041.062.045.058.049.053.052.05.054.047.056.043.058.039.059.036.06.032.122.056.119.043.115.033.107.023.095.013.08.005 1.347.001 3.24-.001-.258 1.078-.771-.011-1.689-.001-2.446.011-.334.002-.351-.005-.363-.013-.368-.026-.367-.043-.181-.029-.178-.034-.174-.04-.17-.046-.165-.053-.158-.06-.152-.068-.144-.076-.135-.084-.126-.094-.116-.102-.105-.113-.093-.123-.08-.134-.067-.145-.053-.156-.037-.169-.022-.181-.005-.194.013-.207.031-.221.05-.236.23-.875.082-.28.099-.266.114-.249.133-.234.15-.218.17-.2.093-.094.097-.089.103-.085.109-.08.114-.075.119-.071.125-.065.131-.061.137-.056.144-.051.149-.046.156-.041.33-.066.358-.044z" transform="matrix(8.18877 0 0 8.18877 -39.8202 -172.698)"/><path d="m21.202 22.331h-3.236l.284-1.04h3.236z" transform="matrix(8.18877 0 0 8.18877 -37.8202 -172.698)"/><path d="m19.348 29.117h-3.23l1.61-5.91h3.235z" transform="matrix(8.18877 0 0 8.18877 -37.8202 -172.698)"/><path d="m14.228 21.284.319.013.287.025.258.037.227.051.198.065.089.038.081.042.074.045.067.05.06.053.054.058.046.062.04.066.034.071.027.075.02.079.014.084.008.089.001.094-.015.201-.04.222-.495 1.808-.028.111-.036.104-.042.097-.049.092-.055.086-.06.08-.066.075-.071.07-.075.064-.08.06-.085.055-.088.05-.091.046-.095.042-.097.039-.1.034-.102.031-.104.027-.212.046-.216.035-.217.026-.216.017-.212.011-.401.009.003.007h-2.931l-.255-.7 1.592.003.17-.007.083-.005.082-.009.08-.012.078-.017.077-.023.037-.014.037-.016.036-.018.036-.02.036-.022.034-.024.034-.026.034-.03.032-.032.032-.034.032-.038.03-.04.03-.044.029-.047.029-.051.027-.054.027-.057.026-.061.43-1.482.034-.101.014-.047.012-.045.009-.043.006-.041.004-.039.001-.036-.002-.036-.004-.033-.008-.031-.01-.029-.014-.028-.017-.026-.021-.024-.024-.022-.028-.021-.031-.019-.035-.017-.039-.016-.044-.014-.047-.013-.051-.011-.056-.01-.06-.008-.065-.007-.069-.005-.074-.004-.163-.004-.183.001-1.54.003-1.84 6.804h-3.241l2.125-7.832h6.184l.383-.009z" transform="matrix(8.18877 0 0 8.18877 -36.8202 -172.698)"/></g></svg>
